<?xml version="1.0" encoding="UTF-8"?>
<svg width="16" height="16" fill="none" version="1.1" viewBox="0 0 16 16" xmlns="http://www.w3.org/2000/svg">
 <title>file_type_luau</title>
 <g stroke-width=".267">
  <rect transform="rotate(15)" x="4.46" y=".323" width="10.7" height="10.7" fill="#00a2ff"/>
  <rect transform="rotate(15)" x="11.7" y="1.66" width="2.13" height="2.13" fill="#fff"/>
  <path d="m3.55 10.6 1.3 0.349-0.0794 0.296-1.67-0.446 0.736-2.75 0.364 0.0976zm2.81 0.855c-0.179 0.123-0.399 0.15-0.662 0.0794-0.218-0.0583-0.367-0.166-0.447-0.322-0.0792-0.157-0.0862-0.36-0.021-0.608l0.356-1.33 0.349 0.0935-0.353 1.32c-0.0829 0.309 0.00141 0.498 0.253 0.565 0.267 0.0715 0.471 0.0196 0.612-0.156l0.398-1.48 0.349 0.0935-0.547 2.04-0.332-0.089zm2.08 0.773c-0.0093-0.0456-0.0065-0.122 0.0086-0.228-0.207 0.125-0.424 0.157-0.649 0.0971-0.201-0.0539-0.351-0.155-0.451-0.303-0.0976-0.149-0.123-0.311-0.0762-0.485 0.0569-0.213 0.182-0.356 0.374-0.43 0.194-0.0748 0.437-0.0728 0.73 0.0057l0.34 0.091 0.043-0.16c0.0327-0.122 0.0222-0.229-0.0316-0.32-0.0534-0.0925-0.151-0.158-0.293-0.196-0.125-0.0334-0.237-0.0299-0.338 0.0104-0.101 0.0403-0.164 0.105-0.188 0.194l-0.351-0.094c0.0273-0.102 0.0894-0.19 0.186-0.265 0.0986-0.076 0.217-0.125 0.355-0.148 0.139-0.022 0.283-0.0131 0.432 0.0267 0.235 0.063 0.404 0.171 0.505 0.325 0.102 0.153 0.128 0.333 0.0776 0.54l-0.252 0.939c-0.0502 0.187-0.0663 0.343-0.0481 0.466l-0.0081 0.0302zm-0.508-0.421c0.109 0.0293 0.221 0.0288 0.334-0.0015 0.113-0.0303 0.204-0.0848 0.272-0.164l0.112-0.419-0.274-0.0733c-0.428-0.115-0.675-0.0468-0.742 0.204-0.0293 0.109-0.0158 0.205 0.0407 0.286 0.0564 0.0812 0.142 0.137 0.256 0.168zm2.66 0.782c-0.179 0.123-0.399 0.15-0.662 0.0793-0.218-0.0583-0.367-0.166-0.447-0.322-0.0792-0.157-0.0862-0.36-0.021-0.608l0.356-1.33 0.349 0.0935-0.353 1.32c-0.0829 0.309 0.0014 0.498 0.253 0.565 0.267 0.0714 0.471 0.0196 0.612-0.156l0.398-1.48 0.349 0.0935-0.547 2.04-0.332-0.089z" fill="#fff"/>
 </g>
</svg>
